<svg width="27" height="45" viewBox="0 0 27 45" fill="none" xmlns="http://www.w3.org/2000/svg">
<path d="M0.733088 20.7441L21.185 0.718897C21.6581 0.255364 22.2895 0 22.9628 0C23.6361 0 24.2676 0.255364 24.7406 0.718897L26.2467 2.19327C27.2268 3.154 27.2268 4.71545 26.2467 5.67471L9.07274 22.4907L26.2658 39.3253C26.7388 39.7888 27 40.4067 27 41.0656C27 41.7253 26.7388 42.3432 26.2658 42.8071L24.7597 44.2811C24.2863 44.7446 23.6552 45 22.9819 45C22.3086 45 21.6771 44.7446 21.2041 44.2811L0.733088 24.2376C0.258938 23.7726 -0.00148964 23.1518 5.72205e-06 22.4918C-0.00148964 21.8292 0.258938 21.2087 0.733088 20.7441Z" fill="#C161EE" fill-opacity="0.9"/>
</svg>
