<svg width="30" height="31" viewBox="0 0 30 31" fill="none" xmlns="http://www.w3.org/2000/svg">
<path d="M4.98454 27.2945C4.87561 27.1854 4.72443 27.1228 4.57033 27.1228C4.41622 27.1228 4.26505 27.1854 4.15606 27.2945C4.04707 27.4035 3.98438 27.5546 3.98438 27.7087C3.98438 27.8628 4.04701 28.014 4.15606 28.1229C4.26505 28.2319 4.41622 28.2947 4.57033 28.2947C4.72443 28.2947 4.87561 28.232 4.98454 28.1229C5.09352 28.014 5.15628 27.8628 5.15628 27.7087C5.15628 27.5546 5.09358 27.4035 4.98454 27.2945Z" fill="#C161EE"/>
<path d="M27.5114 11.3575C27.4025 11.2484 27.2519 11.1858 27.0972 11.1858C26.9431 11.1858 26.7919 11.2484 26.6829 11.3575C26.574 11.4665 26.5112 11.6176 26.5112 11.7717C26.5112 11.9258 26.5739 12.077 26.6829 12.1859C26.7919 12.2949 26.9431 12.3577 27.0972 12.3577C27.2519 12.3577 27.4025 12.295 27.5114 12.1859C27.621 12.077 27.6837 11.9258 27.6837 11.7717C27.6837 11.6176 27.621 11.4665 27.5114 11.3575Z" fill="#C161EE"/>
<path d="M29.8284 0.810048C29.7185 0.700185 29.5694 0.638428 29.4139 0.638428L14.9999 0.639189C14.6763 0.639189 14.414 0.901572 14.414 1.22513V2.90073L8.85978 4.38895C8.54717 4.47274 8.36166 4.79401 8.44545 5.10654L11.3241 15.8492L8.83382 18.3394C8.51688 17.8766 7.98471 17.5723 7.38277 17.5723H1.7578C0.788516 17.5723 0 18.3608 0 19.33V28.8806C0 29.8498 0.788516 30.6384 1.7578 30.6384H7.38282C8.20626 30.6384 8.89898 30.0691 9.08882 29.3036L9.78552 29.9112C10.3234 30.3801 11.0124 30.6384 11.7261 30.6384H29.414C29.7376 30.6384 30 30.376 30 30.0525V1.22436C29.9999 1.06897 29.9382 0.919912 29.8284 0.810048ZM7.96866 28.8806C7.96866 29.2036 7.7058 29.4666 7.38271 29.4666H1.75774C1.43465 29.4666 1.17179 29.2037 1.17179 28.8806V19.3301C1.17179 19.007 1.43465 18.7442 1.75774 18.7442H3.9843V25.4939C3.9843 25.8174 4.24669 26.0798 4.57025 26.0798C4.89382 26.0798 5.1562 25.8174 5.1562 25.4939V18.7442H7.38277C7.70586 18.7442 7.96872 19.007 7.96872 19.3301V28.8806H7.96866ZM9.72904 5.36922L14.414 4.11391V6.2851L14.0213 6.39033C13.8711 6.43058 13.7432 6.52873 13.6655 6.66332C13.5878 6.79791 13.5667 6.95781 13.6069 7.10793C13.8321 7.94822 13.3316 8.81499 12.4913 9.04017C12.341 9.08048 12.2129 9.1788 12.1352 9.31368C12.0576 9.44851 12.0367 9.6087 12.0773 9.75894L14.3613 18.2162H13.1853L12.5792 15.8453C12.5599 15.7698 12.5262 15.7003 12.481 15.6398L9.72904 5.36922ZM14.414 8.97214V13.9163L13.3452 9.95921C13.7917 9.7287 14.157 9.38382 14.414 8.97214ZM22.832 29.4665H11.726C11.2956 29.4665 10.88 29.3108 10.5556 29.0279L9.14056 27.7939V19.69L11.6987 17.1319L12.1627 18.9471C12.229 19.2065 12.4626 19.3879 12.7303 19.3879L24.2504 19.3886C24.7028 19.3886 25.0707 19.7566 25.0707 20.2089C25.0707 20.6613 24.7028 21.0292 24.2504 21.0292H18.3475C18.024 21.0292 17.7616 21.2916 17.7616 21.6152C17.7616 21.9387 18.024 22.2011 18.3475 22.2011H26.0844C26.5368 22.2011 26.9048 22.5691 26.9048 23.0214C26.9048 23.4738 26.5368 23.8417 26.0844 23.8417H18.3475C18.024 23.8417 17.7616 24.1041 17.7616 24.4277C17.7616 24.7512 18.024 25.0136 18.3475 25.0136H24.8307C25.283 25.0136 25.651 25.3816 25.651 25.8339C25.651 26.2863 25.283 26.6542 24.8307 26.6542H18.3475C18.024 26.6542 17.7616 26.9166 17.7616 27.2402C17.7616 27.5637 18.024 27.8261 18.3475 27.8261H22.832C23.2843 27.8261 23.6523 28.1941 23.6523 28.6464C23.6523 29.0985 23.2843 29.4665 22.832 29.4665ZM28.8281 29.4665H28.828H24.6467C24.7604 29.2161 24.8242 28.9386 24.8242 28.6462C24.8242 28.3538 24.7604 28.0762 24.6467 27.8259H24.8307C25.9292 27.8259 26.8228 26.9322 26.8228 25.8338C26.8228 25.5134 26.7464 25.2106 26.6114 24.9421C27.4549 24.7105 28.0766 23.9373 28.0766 23.0213C28.0766 22.5769 27.9302 22.1661 27.6833 21.8345V14.4083C27.6833 14.0848 27.4209 13.8224 27.0974 13.8224C26.7738 13.8224 26.5114 14.0848 26.5114 14.4083V21.0758C26.3737 21.0457 26.2309 21.0292 26.0843 21.0292H26.0651C26.1787 20.7789 26.2425 20.5013 26.2425 20.2089C26.2425 19.1104 25.3488 18.2168 24.2503 18.2168H23.3084C24.3086 17.7879 25.011 16.7938 25.011 15.6384C25.011 14.0922 23.7531 12.8342 22.2068 12.8342C20.6606 12.8342 19.4026 14.0922 19.4026 15.6384C19.4026 16.7938 20.1051 17.7879 21.1052 18.2168H17.9023V7.0757C18.949 6.8476 19.775 6.02172 20.003 4.97494H24.4106C24.6387 6.02172 25.4646 6.8476 26.5114 7.0757V8.89738C26.5114 9.22093 26.7737 9.48331 27.0973 9.48331C27.4209 9.48331 27.6833 9.22093 27.6833 8.89738V6.55258C27.6833 6.22902 27.4209 5.96664 27.0973 5.96664C26.2273 5.96664 25.5197 5.25889 25.5197 4.38901C25.5197 4.06545 25.2573 3.80307 24.9337 3.80307H19.4799C19.1564 3.80307 18.894 4.06545 18.894 4.38901C18.894 5.25895 18.1863 5.96664 17.3164 5.96664C16.9928 5.96664 16.7304 6.22902 16.7304 6.55258V18.2168H15.5859V1.81095L28.8281 1.8103V29.4665ZM22.207 17.2707C21.3069 17.2707 20.5747 16.5385 20.5747 15.6385C20.5747 14.7385 21.3069 14.0062 22.207 14.0062C23.107 14.0062 23.8392 14.7384 23.8392 15.6384C23.8392 16.5384 23.107 17.2707 22.207 17.2707Z" fill="#C161EE"/>
</svg>
