<svg width="40" height="40" viewBox="0 0 40 40" fill="none" xmlns="http://www.w3.org/2000/svg">
<path d="M38.85 24.245C39.14 22.9425 39.29 21.5925 39.29 20.2075C39.29 9.82 30.75 1.3975 20.2125 1.3975C19.1025 1.3975 18.0125 1.4925 16.95 1.6725C15.245 0.615 13.2275 0 11.065 0C4.9525 0 0 4.8825 0 10.91C0 12.9225 0.555 14.805 1.52 16.4275C1.2675 17.6475 1.1325 18.9125 1.1325 20.2075C1.1325 30.5975 9.675 39.02 20.21 39.02C21.405 39.02 22.5725 38.91 23.705 38.705C25.265 39.53 27.045 40 28.9375 40C35.0475 40 40 35.115 40 29.0925C40 27.35 39.585 25.7075 38.85 24.245ZM29.9975 29.1975C29.115 30.43 27.8125 31.405 26.12 32.095C24.4475 32.7825 22.445 33.1325 20.16 33.1325C17.42 33.1325 15.1225 32.6575 13.3275 31.7175C12.045 31.035 10.99 30.1125 10.1875 28.9675C9.375 27.8175 8.9675 26.675 8.9675 25.57C8.9675 24.8825 9.235 24.285 9.7625 23.7975C10.285 23.31 10.955 23.0675 11.755 23.0675C12.41 23.0675 12.975 23.26 13.435 23.6425C13.8725 24.01 14.25 24.555 14.5525 25.2525C14.89 26.0175 15.2575 26.6625 15.645 27.165C16.0225 27.6575 16.56 28.0675 17.2475 28.39C17.94 28.71 18.8725 28.8775 20.0175 28.8775C21.595 28.8775 22.89 28.545 23.86 27.89C24.8125 27.2525 25.2725 26.4825 25.2725 25.5425C25.2725 24.8025 25.03 24.2175 24.5375 23.76C24.0175 23.28 23.3325 22.9075 22.5025 22.65C21.635 22.385 20.4575 22.095 19.0025 21.795C17.02 21.3775 15.3375 20.8825 14.0025 20.32C12.635 19.745 11.53 18.95 10.725 17.955C9.905 16.9425 9.49 15.675 9.49 14.185C9.49 12.765 9.925 11.485 10.785 10.38C11.6375 9.2825 12.8825 8.425 14.49 7.8425C16.0725 7.265 17.955 6.9725 20.0875 6.9725C21.79 6.9725 23.2875 7.1675 24.54 7.5525C25.7975 7.9375 26.8575 8.4575 27.69 9.1C28.53 9.75 29.155 10.4375 29.545 11.1575C29.94 11.8825 30.1425 12.605 30.1425 13.3025C30.1425 13.975 29.88 14.5875 29.36 15.1175C28.835 15.655 28.175 15.925 27.4 15.925C26.695 15.925 26.14 15.7525 25.7575 15.42C25.4 15.1075 25.0275 14.62 24.6175 13.925C24.1425 13.035 23.565 12.3325 22.905 11.835C22.2625 11.3525 21.1925 11.1125 19.7175 11.1125C18.3525 11.1125 17.2375 11.3825 16.4125 11.9175C15.6175 12.43 15.23 13.02 15.23 13.72C15.23 14.1475 15.355 14.505 15.6125 14.8125C15.8825 15.1425 16.265 15.425 16.75 15.665C17.25 15.9125 17.7675 16.1125 18.285 16.2525C18.815 16.3975 19.7025 16.615 20.925 16.8925C22.47 17.2175 23.8875 17.585 25.1425 17.9825C26.415 18.38 27.51 18.8725 28.41 19.45C29.3225 20.0375 30.045 20.7875 30.56 21.6875C31.075 22.595 31.335 23.7075 31.335 25.0025C31.3325 26.55 30.8825 27.9625 29.9975 29.1975Z" fill="white"/>
</svg>
