<svg width="30" height="33" viewBox="0 0 30 33" fill="none" xmlns="http://www.w3.org/2000/svg">
<path d="M15.8686 20.8422C16.4222 20.7992 16.9268 20.5168 17.2544 20.0663L22.2334 13.1822C22.386 12.9711 22.3631 12.6797 22.1781 12.4946C21.993 12.31 21.7016 12.2872 21.4905 12.4393L14.6062 17.4204C14.1574 17.747 13.875 18.2517 13.8319 18.8053C13.7888 19.359 13.9893 19.9009 14.3812 20.2929C14.7381 20.6503 15.2193 20.8481 15.7197 20.8481C15.7692 20.8481 15.8186 20.846 15.8686 20.8422ZM14.8923 18.8883C14.9109 18.6452 15.0353 18.4235 15.231 18.2809L19.4304 15.2426L16.3935 19.4414C16.2499 19.6387 16.0281 19.7626 15.7851 19.7818C15.5432 19.7977 15.3055 19.7137 15.1326 19.5408C14.9614 19.3691 14.8731 19.1308 14.8923 18.8883Z" fill="#C161EE"/>
<path d="M27.7804 11.0432C27.7751 11.032 27.7751 11.0203 27.7692 11.0092C27.7629 10.9985 27.7528 10.9927 27.7458 10.9826C27.2082 10.0604 26.5722 9.20254 25.8501 8.425L26.9923 7.28315L27.7442 8.03517L30 5.7786L27.7442 3.52256L25.4879 5.7786L26.2404 6.53114L25.0982 7.67299C24.3207 6.95076 23.4635 6.31415 22.5409 5.77647C22.5308 5.76956 22.5249 5.75945 22.5143 5.75307C22.5031 5.74669 22.4914 5.74722 22.4802 5.74137C20.8355 4.79364 18.9876 4.16236 17.0173 3.93101V3.29759H17.815C18.5483 3.29759 19.1444 2.70141 19.1444 1.96801C19.1444 1.23461 18.5478 0.638428 17.8145 0.638428H13.0285C12.2952 0.638428 11.6991 1.23461 11.6991 1.96801C11.6991 2.70141 12.2952 3.29759 13.0285 3.29759H13.8262V3.91239C13.2519 3.97355 12.6786 4.06716 12.1118 4.19692C11.8257 4.26234 11.6465 4.54793 11.7124 4.83406C11.7778 5.12019 12.0634 5.29995 12.3495 5.23347C12.8387 5.12125 13.3327 5.03669 13.8278 4.97978L14.3984 4.93564C14.5728 4.92235 14.7334 4.91277 14.8897 4.90533V5.95676C14.8897 6.25086 15.1274 6.48859 15.4215 6.48859C15.7156 6.48859 15.9533 6.25086 15.9533 5.95676V4.90905C17.9533 5.00106 19.8379 5.53821 21.5135 6.42212L20.9892 7.32995C20.8424 7.5847 20.9296 7.90965 21.1838 8.05644C21.2673 8.10484 21.3587 8.12771 21.4491 8.12771C21.6331 8.12771 21.8118 8.03251 21.9102 7.86179L22.4329 6.95608C24.0968 8.01177 25.5103 9.42538 26.5658 11.0895L25.6602 11.6123C25.4066 11.7591 25.3194 12.084 25.4667 12.3388C25.5656 12.5095 25.7437 12.6047 25.9277 12.6047C26.0181 12.6047 26.1096 12.5818 26.1931 12.5334L27.1008 12.009C27.9968 13.7088 28.5355 15.6244 28.6158 17.6566H27.5656C27.2715 17.6566 27.0338 17.8943 27.0338 18.1884C27.0338 18.4825 27.2715 18.7202 27.5656 18.7202H28.6158C28.5355 20.7524 27.9968 22.668 27.1008 24.3678L26.1931 23.8434C25.9389 23.6966 25.6134 23.7828 25.4667 24.038C25.3199 24.2928 25.4071 24.6177 25.6613 24.7645L26.5669 25.2873C25.5113 26.9514 24.0979 28.365 22.434 29.4207L21.9112 28.515C21.7639 28.2597 21.438 28.173 21.1848 28.3204C20.9301 28.4671 20.8429 28.7926 20.9902 29.0468L21.5145 29.9547C19.8389 30.8386 17.9543 31.3757 15.9543 31.4677V30.4211C15.9543 30.127 15.7166 29.8893 15.4226 29.8893C15.1285 29.8893 14.8908 30.127 14.8908 30.4211V31.472C14.0416 31.4427 13.1897 31.3364 12.351 31.1439C12.065 31.0753 11.7794 31.2571 11.714 31.5433C11.648 31.8294 11.8273 32.115 12.1133 32.1804C13.1748 32.425 14.259 32.5484 15.3348 32.5484C15.3609 32.5484 15.3859 32.5468 15.4119 32.5463C15.4156 32.5463 15.4183 32.5484 15.4215 32.5484C15.4258 32.5484 15.4295 32.5458 15.4337 32.5458C17.99 32.5282 20.3882 31.8379 22.4632 30.6455C22.4797 30.6381 22.4973 30.6344 22.5132 30.6248C22.5238 30.6184 22.5297 30.6083 22.5398 30.6014C24.6876 29.3495 26.4824 27.5566 27.7368 25.4102C27.7469 25.3958 27.7597 25.3846 27.7687 25.3687C27.7751 25.3575 27.7746 25.3458 27.7799 25.3346C28.9944 23.2286 29.6927 20.7896 29.6927 18.1889C29.6927 15.5883 28.9944 13.1493 27.7804 11.0432ZM27.7437 5.02659L28.4956 5.7786L27.7437 6.53114L26.9913 5.7786L27.7437 5.02659ZM14.8897 3.8406V2.23393H13.0285C12.8823 2.23393 12.7626 2.11427 12.7626 1.96801C12.7626 1.82176 12.8823 1.70209 13.0285 1.70209H17.8145C17.9607 1.70209 18.0804 1.82176 18.0804 1.96801C18.0804 2.11427 17.9607 2.23393 17.8145 2.23393H15.9533V3.8406C15.7682 3.83315 15.5917 3.82943 15.4215 3.82943C15.4066 3.82943 15.3896 3.83049 15.3747 3.83049C15.3614 3.83049 15.3481 3.82943 15.3348 3.82943C15.2476 3.82943 15.1604 3.83528 15.0732 3.83687C15.0115 3.83847 14.9535 3.83794 14.8897 3.8406Z" fill="#C161EE"/>
<path d="M10.6355 8.08423H7.9766C7.68253 8.08423 7.44482 8.32196 7.44482 8.61606C7.44482 8.91017 7.68253 9.1479 7.9766 9.1479H10.6355C10.9295 9.1479 11.1672 8.91017 11.1672 8.61606C11.1672 8.32196 10.9295 8.08423 10.6355 8.08423Z" fill="#C161EE"/>
<path d="M10.6356 11.8069H5.3179C5.02383 11.8069 4.78613 12.0447 4.78613 12.3388C4.78613 12.6329 5.02383 12.8706 5.3179 12.8706H10.6356C10.9297 12.8706 11.1674 12.6329 11.1674 12.3388C11.1674 12.0447 10.9297 11.8069 10.6356 11.8069Z" fill="#C161EE"/>
<path d="M10.6353 15.5297H2.65873C2.36466 15.5297 2.12695 15.7674 2.12695 16.0615C2.12695 16.3556 2.36466 16.5933 2.65873 16.5933H10.6353C10.9294 16.5933 11.1671 16.3556 11.1671 16.0615C11.1671 15.7674 10.9294 15.5297 10.6353 15.5297Z" fill="#C161EE"/>
<path d="M10.6354 19.2527H0.531772C0.237702 19.2527 0 19.4905 0 19.7846C0 20.0787 0.237702 20.3164 0.531772 20.3164H10.6354C10.9295 20.3164 11.1672 20.0787 11.1672 19.7846C11.1672 19.4905 10.9295 19.2527 10.6354 19.2527Z" fill="#C161EE"/>
<path d="M10.6352 22.9755H3.7222C3.42813 22.9755 3.19043 23.2132 3.19043 23.5073C3.19043 23.8014 3.42813 24.0391 3.7222 24.0391H10.6352C10.9293 24.0391 11.167 23.8014 11.167 23.5073C11.167 23.2132 10.9293 22.9755 10.6352 22.9755Z" fill="#C161EE"/>
<path d="M10.6355 26.6982H6.91312C6.61905 26.6982 6.38135 26.9359 6.38135 27.23C6.38135 27.5241 6.61905 27.7618 6.91312 27.7618H10.6355C10.9296 27.7618 11.1673 27.5241 11.1673 27.23C11.1673 26.9359 10.9296 26.6982 10.6355 26.6982Z" fill="#C161EE"/>
</svg>
