<svg width="40" height="23" viewBox="0 0 40 23" fill="none" xmlns="http://www.w3.org/2000/svg">
<path d="M33.1928 13.1889C32.5461 12.3839 32.7311 12.0257 33.1928 11.3061C33.2012 11.2979 38.5397 4.02664 39.0897 1.56071L39.093 1.55907C39.3664 0.660428 39.093 0 37.7713 0H33.3978C32.2845 0 31.7711 0.566786 31.4961 1.20093C31.4961 1.20093 29.2693 6.45479 26.1192 9.86043C25.1025 10.8445 24.6325 11.1599 24.0775 11.1599C23.8042 11.1599 23.3791 10.8445 23.3791 9.94586V1.55907C23.3791 0.481357 23.0675 0 22.1458 0H15.2689C14.5705 0 14.1555 0.502714 14.1555 0.970929C14.1555 1.99279 15.7305 2.22771 15.8939 5.10271V11.3406C15.8939 12.7075 15.6422 12.9589 15.0839 12.9589C13.5971 12.9589 9.98868 7.68364 7.85027 1.64614C7.41859 0.474785 6.99691 0.00164274 5.8752 0.00164274H1.50005C0.251675 0.00164274 0 0.568428 0 1.20257C0 2.323 1.48672 7.89393 6.91357 15.2539C10.5304 20.2778 15.6239 23 20.2574 23C23.0425 23 23.3825 22.3954 23.3825 21.3555C23.3825 16.5551 23.1308 16.1016 24.5259 16.1016C25.1725 16.1016 26.2859 16.4171 28.886 18.8403C31.8578 21.7136 32.3461 23 34.0095 23H38.383C39.6297 23 40.2614 22.3954 39.898 21.2027C39.0664 18.6941 33.4462 13.5339 33.1928 13.1889Z" fill="white"/>
</svg>
